HIERARCHY
ROOT pelvis
{
  OFFSET 0 100 0
  CHANNELS 6 Xposition Yposition Zposition Zrotation Xrotation Yrotation
  JOINT pelvis_right_femur
  {
    OFFSET -10.78128 -3.44521 -0.5502486
    CHANNELS 3 Zrotation Xrotation Yrotation
    JOINT right_femur_tibia
    {
      OFFSET -0.8047443 -44.0398 -0.1307829
      CHANNELS 3 Zrotation Xrotation Yrotation
      JOINT right_tibia_foot
      {
        OFFSET 3.006224 -47.83518 -5
        CHANNELS 3 Zrotation Xrotation Yrotation
        End Site
        {
          OFFSET 0 -5 15
        }
      }
    }
  }
  JOINT pelvis_left_femur
  {
    OFFSET 10.78128 -3.44521 -0.5502486
    CHANNELS 3 Zrotation Xrotation Yrotation
    JOINT left_femur_tibia
    {
      OFFSET 0.8047443 -44.0398 -0.1307829
      CHANNELS 3 Zrotation Xrotation Yrotation
      JOINT left_tibia_foot
      {
        OFFSET -4.370144 -48.10324 -4.275266
        CHANNELS 3 Zrotation Xrotation Yrotation
        End Site
        {
          OFFSET 0 -5 15
        }
      }
    }
  }
  JOINT pelvis_spine1
  {
    OFFSET 0 6.468898 -3.129235
    CHANNELS 3 Zrotation Xrotation Yrotation
    JOINT spine1
    {
      OFFSET 0 23.15396 4.99043
      CHANNELS 3 Zrotation Xrotation Yrotation
      JOINT spine2
      {
        OFFSET 0 20.79997 -5.064912
        CHANNELS 3 Zrotation Xrotation Yrotation
        JOINT neck
        {
          OFFSET 0 14.38658 9.616178
          CHANNELS 3 Zrotation Xrotation Yrotation
          End Site
          {
            OFFSET 0 20 0
          }
        }
      }
      JOINT right_manubrium
      {
        OFFSET -5.722621 16.35077 3.967754
        CHANNELS 3 Zrotation Xrotation Yrotation
        JOINT right_clavicle
        {
          OFFSET -13.16364 1.694482 -4.693211
          CHANNELS 3 Zrotation Xrotation Yrotation
          JOINT right_humerus
          {
            OFFSET -28.5034 -0.3100689 -2.792744
            CHANNELS 3 Zrotation Xrotation Yrotation
            JOINT right_radius
            {
              OFFSET -25.15693 0.02248979 -1.271978
              CHANNELS 3 Zrotation Xrotation Yrotation
              End Site
              {
                OFFSET -15 0 0
              }
            }
          }
        }
      }
      JOINT left_manubrium
      {
        OFFSET 5.722621 16.35077 3.967754
        CHANNELS 3 Zrotation Xrotation Yrotation
        JOINT left_clavicle
        {
          OFFSET 13.16364 1.694482 -4.693211
          CHANNELS 3 Zrotation Xrotation Yrotation
          JOINT left_humerus
          {
            OFFSET 29.39168 -1.063119 -2.237045
            CHANNELS 3 Zrotation Xrotation Yrotation
            JOINT left_radius
            {
              OFFSET 24.59957 -0.9528479 0.9047498
              CHANNELS 3 Zrotation Xrotation Yrotation
              End Site
              {
                OFFSET 15 -0 -0
              }
            }
          }
        }
      }
    }
  }
}
MOTION
Frames: 17
Frame Time: 0.0416666666667
-789.463 138.1314 3085.943 -5.933841 -7.906127 -35.85423 3.884523 3.59446 -4.728403 -0 13.14102 -0 -10.38612 -1.487198 -0.07294664 2.254715 -10.27136 -1.85022 -0 14.22443 -0 0.8765754 -4.467037 11.80033 0.7879387 -2.508568 6.056562 -0.2173082 16.32757 -6.07307 0.73095 20.83682 4.075118 2.213277 -17.02281 4.314612 -2.25886 -27.39768 12.92684 90.81712 15.3809 -13.43388 -0 0 21.08001 -29.79914 15.95506 15.77613 4.079176 -25.79466 -9.99829 -89.77263 9.049004 27.12053 0 0 -14.00502 10.88191 14.05084 -1.292249
-792.531 138.0621 3091.728 -5.9415 -7.900388 -35.90994 3.884523 3.59446 -4.728403 -0 13.14102 -0 -10.38612 -1.487198 -0.07294664 2.254715 -10.27136 -1.85022 -0 14.22443 -0 0.8765754 -4.467037 11.80033 0.7879387 -2.508568 6.056562 -0.2173082 16.32757 -6.07307 0.73095 20.83682 4.075118 2.213277 -17.02281 4.314612 -2.25886 -27.39768 12.92684 90.81712 15.3809 -13.43388 -0 0 21.08001 -29.79914 15.95506 15.77613 4.079176 -25.79466 -9.99829 -89.77263 9.049004 27.12053 0 0 -14.00502 10.88191 14.05084 -1.292249
-795.6047 137.9927 3097.509 -5.949154 -7.894642 -35.96564 3.884523 3.59446 -4.728403 -0 13.14102 -0 -10.38612 -1.487198 -0.07294664 2.254715 -10.27136 -1.85022 -0 14.22443 -0 0.8765754 -4.467037 11.80033 0.7879387 -2.508568 6.056562 -0.2173082 16.32757 -6.07307 0.73095 20.83682 4.075118 2.213277 -17.02281 4.314612 -2.25886 -27.39768 12.92684 90.81712 15.3809 -13.43388 -0 0 21.08001 -29.79914 15.95506 15.77613 4.079176 -25.79466 -9.99829 -89.77263 9.049004 27.12053 0 0 -14.00502 10.88191 14.05084 -1.292249
-798.684 137.9233 3103.287 -5.956802 -7.888888 -36.02135 3.884523 3.59446 -4.728403 -0 13.14102 -0 -10.38612 -1.487198 -0.07294664 2.254715 -10.27136 -1.85022 -0 14.22443 -0 0.8765754 -4.467037 11.80033 0.7879387 -2.508568 6.056562 -0.2173082 16.32757 -6.07307 0.73095 20.83682 4.075118 2.213277 -17.02281 4.314612 -2.25886 -27.39768 12.92684 90.81712 15.3809 -13.43388 -0 0 21.08001 -29.79914 15.95506 15.77613 4.079176 -25.79466 -9.99829 -89.77263 9.049004 27.12053 0 0 -14.00502 10.88191 14.05084 -1.292249
-801.7689 137.8539 3109.062 -5.964445 -7.883128 -36.07705 3.884523 3.59446 -4.728403 -0 13.14102 -0 -10.38612 -1.487198 -0.07294664 2.254715 -10.27136 -1.85022 -0 14.22443 -0 0.8765754 -4.467037 11.80033 0.7879387 -2.508568 6.056562 -0.2173082 16.32757 -6.07307 0.73095 20.83682 4.075118 2.213277 -17.02281 4.314612 -2.25886 -27.39768 12.92684 90.81712 15.3809 -13.43388 -0 0 21.08001 -29.79914 15.95506 15.77613 4.079176 -25.79466 -9.99829 -89.77263 9.049004 27.12053 0 0 -14.00502 10.88191 14.05084 -1.292249
-804.8593 137.7846 3114.834 -5.972082 -7.87736 -36.13275 3.884523 3.59446 -4.728403 -0 13.14102 -0 -10.38612 -1.487198 -0.07294664 2.254715 -10.27136 -1.850219 -0 14.22443 -0 0.8765754 -4.467037 11.80033 0.7879387 -2.508568 6.056562 -0.2173082 16.32757 -6.07307 0.73095 20.83682 4.075118 2.213277 -17.02281 4.314612 -2.25886 -27.39768 12.92684 90.81712 15.3809 -13.43388 -0 0 21.08001 -29.79914 15.95506 15.77613 4.079176 -25.79466 -9.99829 -89.77263 9.049004 27.12053 0 0 -14.00502 10.88191 14.05084 -1.292249
-807.9554 137.7152 3120.604 -5.979712 -7.871584 -36.18845 3.884523 3.59446 -4.728403 -0 13.14102 -0 -10.38612 -1.487198 -0.07294664 2.254715 -10.27136 -1.850219 -0 14.22443 -0 0.8765754 -4.467037 11.80033 0.7879387 -2.508568 6.056562 -0.2173082 16.32757 -6.07307 0.73095 20.83682 4.075118 2.213277 -17.02281 4.314612 -2.25886 -27.39768 12.92684 90.81712 15.3809 -13.43388 -0 0 21.08001 -29.79914 15.95506 15.77613 4.079176 -25.79466 -9.99829 -89.77263 9.049004 27.12053 0 0 -14.00502 10.88191 14.05084 -1.292249
-811.057 137.6458 3126.37 -5.987338 -7.865801 -36.24415 3.884523 3.59446 -4.728403 -0 13.14102 -0 -10.38612 -1.487198 -0.07294664 2.254715 -10.27136 -1.850219 -0 14.22443 -0 0.8765754 -4.467037 11.80033 0.7879387 -2.508568 6.056562 -0.2173082 16.32757 -6.07307 0.73095 20.83682 4.075118 2.213277 -17.02281 4.314612 -2.25886 -27.39768 12.92684 90.81712 15.3809 -13.43388 -0 0 21.08001 -29.79914 15.95506 15.77613 4.079176 -25.79466 -9.99829 -89.77263 9.049004 27.12053 0 0 -14.00502 10.88191 14.05084 -1.292249
-814.1642 137.5764 3132.133 -5.994957 -7.860011 -36.29984 3.884523 3.59446 -4.728403 -0 13.14102 -0 -10.38612 -1.487198 -0.07294664 2.254715 -10.27136 -1.850219 -0 14.22443 -0 0.8765754 -4.467037 11.80033 0.7879387 -2.508568 6.056562 -0.2173082 16.32757 -6.07307 0.73095 20.83682 4.075118 2.213277 -17.02281 4.314612 -2.25886 -27.39768 12.92684 90.81712 15.3809 -13.43388 -0 0 21.08001 -29.79914 15.95506 15.77613 4.079176 -25.79466 -9.99829 -89.77263 9.049004 27.12053 0 0 -14.00502 10.88191 14.05084 -1.292249
-817.277 137.507 3137.893 -6.00257 -7.854213 -36.35554 3.884523 3.59446 -4.728403 -0 13.14102 -0 -10.38612 -1.487198 -0.07294664 2.254715 -10.27136 -1.850219 -0 14.22443 -0 0.8765754 -4.467037 11.80033 0.7879387 -2.508568 6.056562 -0.2173082 16.32757 -6.07307 0.73095 20.83682 4.075118 2.213277 -17.02281 4.314612 -2.25886 -27.39768 12.92684 90.81712 15.3809 -13.43388 -0 0 21.08001 -29.79914 15.95506 15.77613 4.079176 -25.79466 -9.99829 -89.77263 9.049004 27.12053 0 0 -14.00502 10.88191 14.05084 -1.292249
-820.3954 137.4377 3143.65 -6.010178 -7.848409 -36.41123 3.884523 3.59446 -4.728403 -0 13.14102 -0 -10.38612 -1.487198 -0.07294664 2.254715 -10.27136 -1.850219 -0 14.22443 -0 0.8765754 -4.467037 11.80033 0.7879387 -2.508568 6.056562 -0.2173082 16.32757 -6.07307 0.73095 20.83682 4.075118 2.213277 -17.02281 4.314612 -2.25886 -27.39768 12.92684 90.81712 15.3809 -13.43388 -0 0 21.08001 -29.79914 15.95506 15.77613 4.079176 -25.79466 -9.99829 -89.77263 9.049004 27.12053 0 0 -14.00502 10.88191 14.05084 -1.292249
-823.5193 137.3683 3149.405 -6.01778 -7.842596 -36.46692 3.884523 3.59446 -4.728403 -0 13.14102 -0 -10.38612 -1.487198 -0.07294664 2.254715 -10.27136 -1.850219 -0 14.22443 -0 0.8765754 -4.467037 11.80033 0.7879387 -2.508568 6.056562 -0.2173082 16.32757 -6.07307 0.73095 20.83682 4.075118 2.213277 -17.02281 4.314612 -2.25886 -27.39768 12.92684 90.81712 15.3809 -13.43388 -0 0 21.08001 -29.79914 15.95506 15.77613 4.079176 -25.79466 -9.99829 -89.77263 9.049004 27.12053 0 0 -14.00502 10.88191 14.05084 -1.292249
-826.6488 137.2989 3155.156 -6.025376 -7.836777 -36.52261 3.884523 3.59446 -4.728403 -0 13.14102 -0 -10.38612 -1.487198 -0.07294664 2.254715 -10.27136 -1.850219 -0 14.22443 -0 0.8765754 -4.467037 11.80033 0.7879387 -2.508568 6.056562 -0.2173082 16.32757 -6.07307 0.73095 20.83682 4.075118 2.213277 -17.02281 4.314612 -2.25886 -27.39768 12.92684 90.81712 15.3809 -13.43388 -0 0 21.08001 -29.79914 15.95506 15.77613 4.079176 -25.79466 -9.99829 -89.77263 9.049004 27.12053 0 0 -14.00502 10.88191 14.05084 -1.292249
-829.7839 137.2295 3160.904 -6.032967 -7.83095 -36.5783 3.884523 3.59446 -4.728403 -0 13.14102 -0 -10.38612 -1.487198 -0.07294664 2.254715 -10.27136 -1.850219 -0 14.22443 -0 0.8765754 -4.467037 11.80033 0.7879387 -2.508568 6.056562 -0.2173082 16.32757 -6.07307 0.73095 20.83682 4.075118 2.213277 -17.02281 4.314612 -2.25886 -27.39768 12.92684 90.81712 15.3809 -13.43388 -0 0 21.08001 -29.79914 15.95506 15.77613 4.079176 -25.79466 -9.99829 -89.77263 9.049004 27.12053 0 0 -14.00502 10.88191 14.05084 -1.292249
-832.9245 137.1601 3166.649 -6.040551 -7.825116 -36.63398 3.884523 3.59446 -4.728403 -0 13.14102 -0 -10.38612 -1.487198 -0.07294664 2.254715 -10.27136 -1.850219 -0 14.22443 -0 0.8765754 -4.467037 11.80033 0.7879387 -2.508568 6.056562 -0.2173082 16.32757 -6.07307 0.73095 20.83682 4.075118 2.213277 -17.02281 4.314612 -2.25886 -27.39768 12.92684 90.81712 15.3809 -13.43388 -0 0 21.08001 -29.79914 15.95506 15.77613 4.079176 -25.79466 -9.99829 -89.77263 9.049004 27.12053 0 0 -14.00502 10.88191 14.05084 -1.292249
-836.0707 137.0908 3172.391 -6.04813 -7.819275 -36.68967 3.884523 3.59446 -4.728403 -0 13.14102 -0 -10.38612 -1.487198 -0.07294664 2.254715 -10.27136 -1.850219 -0 14.22443 -0 0.8765754 -4.467037 11.80033 0.7879387 -2.508568 6.056562 -0.2173082 16.32757 -6.07307 0.73095 20.83682 4.075118 2.213277 -17.02281 4.314612 -2.25886 -27.39768 12.92684 90.81712 15.3809 -13.43388 -0 0 21.08001 -29.79914 15.95506 15.77613 4.079176 -25.79466 -9.99829 -89.77263 9.049004 27.12053 0 0 -14.00502 10.88191 14.05084 -1.292249
-839.2225 137.0214 3178.13 -6.055703 -7.813426 -36.74535 3.884523 3.59446 -4.728403 -0 13.14102 -0 -10.38612 -1.487198 -0.07294664 2.254715 -10.27136 -1.85022 -0 14.22443 -0 0.8765754 -4.467037 11.80033 0.7879387 -2.508568 6.056562 -0.2173082 16.32757 -6.07307 0.73095 20.83682 4.075118 2.213277 -17.02281 4.314612 -2.25886 -27.39768 12.92684 90.81712 15.3809 -13.43388 -0 0 21.08001 -29.79914 15.95506 15.77613 4.079176 -25.79466 -9.99829 -89.77263 9.049004 27.12053 0 0 -14.00502 10.88191 14.05084 -1.292249
